<svg width="121" height="21" viewBox="0 0 121 21" fill="none" xmlns="http://www.w3.org/2000/svg">
<path d="M0.984219 7.96C0.984219 6.57333 1.28422 5.34 1.88422 4.26C2.48422 3.16667 3.31755 2.32 4.38422 1.72C5.46422 1.10667 6.68422 0.799999 8.04422 0.799999C9.71089 0.799999 11.1376 1.24 12.3242 2.12C13.5109 3 14.3042 4.2 14.7042 5.72H10.9442C10.6642 5.13333 10.2642 4.68667 9.74422 4.38C9.23755 4.07333 8.65755 3.92 8.00422 3.92C6.95089 3.92 6.09755 4.28667 5.44422 5.02C4.79089 5.75333 4.46422 6.73333 4.46422 7.96C4.46422 9.18667 4.79089 10.1667 5.44422 10.9C6.09755 11.6333 6.95089 12 8.00422 12C8.65755 12 9.23755 11.8467 9.74422 11.54C10.2642 11.2333 10.6642 10.7867 10.9442 10.2H14.7042C14.3042 11.72 13.5109 12.92 12.3242 13.8C11.1376 14.6667 9.71089 15.1 8.04422 15.1C6.68422 15.1 5.46422 14.8 4.38422 14.2C3.31755 13.5867 2.48422 12.74 1.88422 11.66C1.28422 10.58 0.984219 9.34667 0.984219 7.96ZM20.2186 5.7C20.6186 5.08667 21.1186 4.60667 21.7186 4.26C22.3186 3.9 22.9853 3.72 23.7186 3.72V7.34H22.7786C21.9253 7.34 21.2853 7.52667 20.8586 7.9C20.4319 8.26 20.2186 8.9 20.2186 9.82V15H16.7986V3.84H20.2186V5.7ZM30.4333 15.16C29.3399 15.16 28.3533 14.9267 27.4733 14.46C26.6066 13.9933 25.9199 13.3267 25.4133 12.46C24.9199 11.5933 24.6733 10.58 24.6733 9.42C24.6733 8.27333 24.9266 7.26667 25.4333 6.4C25.9399 5.52 26.6333 4.84667 27.5133 4.38C28.3933 3.91333 29.3799 3.68 30.4733 3.68C31.5666 3.68 32.5533 3.91333 33.4333 4.38C34.3133 4.84667 35.0066 5.52 35.5133 6.4C36.0199 7.26667 36.2733 8.27333 36.2733 9.42C36.2733 10.5667 36.0133 11.58 35.4933 12.46C34.9866 13.3267 34.2866 13.9933 33.3933 14.46C32.5133 14.9267 31.5266 15.16 30.4333 15.16ZM30.4333 12.2C31.0866 12.2 31.6399 11.96 32.0933 11.48C32.5599 11 32.7933 10.3133 32.7933 9.42C32.7933 8.52667 32.5666 7.84 32.1133 7.36C31.6733 6.88 31.1266 6.64 30.4733 6.64C29.8066 6.64 29.2533 6.88 28.8133 7.36C28.3733 7.82667 28.1533 8.51333 28.1533 9.42C28.1533 10.3133 28.3666 11 28.7933 11.48C29.2333 11.96 29.7799 12.2 30.4333 12.2ZM54.1077 3.84L51.0877 15H47.3077L45.5477 7.76L43.7277 15H39.9677L36.9277 3.84H40.3477L41.9277 11.82L43.8077 3.84H47.4277L49.3277 11.78L50.8877 3.84H54.1077ZM54.7319 9.4C54.7319 8.25333 54.9452 7.24667 55.3719 6.38C55.8119 5.51333 56.4052 4.84667 57.1519 4.38C57.8985 3.91333 58.7319 3.68 59.6519 3.68C60.3852 3.68 61.0519 3.83333 61.6519 4.14C62.2652 4.44667 62.7452 4.86 63.0919 5.38V0.2H66.5119V15H63.0919V13.4C62.7719 13.9333 62.3119 14.36 61.7119 14.68C61.1252 15 60.4385 15.16 59.6519 15.16C58.7319 15.16 57.8985 14.9267 57.1519 14.46C56.4052 13.98 55.8119 13.3067 55.3719 12.44C54.9452 11.56 54.7319 10.5467 54.7319 9.4ZM63.0919 9.42C63.0919 8.56667 62.8519 7.89333 62.3719 7.4C61.9052 6.90667 61.3319 6.66 60.6519 6.66C59.9719 6.66 59.3919 6.90667 58.9119 7.4C58.4452 7.88 58.2119 8.54667 58.2119 9.4C58.2119 10.2533 58.4452 10.9333 58.9119 11.44C59.3919 11.9333 59.9719 12.18 60.6519 12.18C61.3319 12.18 61.9052 11.9333 62.3719 11.44C62.8519 10.9467 63.0919 10.2733 63.0919 9.42Z" fill="#313A42"/>
<path d="M74.0661 15.14C73.0394 15.14 72.1194 14.9733 71.3061 14.64C70.4928 14.3067 69.8394 13.8133 69.3461 13.16C68.8661 12.5067 68.6128 11.72 68.5861 10.8H72.2261C72.2794 11.32 72.4594 11.72 72.7661 12C73.0728 12.2667 73.4728 12.4 73.9661 12.4C74.4728 12.4 74.8728 12.2867 75.1661 12.06C75.4594 11.82 75.6061 11.4933 75.6061 11.08C75.6061 10.7333 75.4861 10.4467 75.2461 10.22C75.0194 9.99333 74.7328 9.80667 74.3861 9.66C74.0528 9.51333 73.5728 9.34667 72.9461 9.16C72.0394 8.88 71.2994 8.6 70.7261 8.32C70.1528 8.04 69.6594 7.62667 69.2461 7.08C68.8328 6.53333 68.6261 5.82 68.6261 4.94C68.6261 3.63333 69.0994 2.61333 70.0461 1.88C70.9928 1.13333 72.2261 0.76 73.7461 0.76C75.2928 0.76 76.5394 1.13333 77.4861 1.88C78.4328 2.61333 78.9394 3.64 79.0061 4.96H75.3061C75.2794 4.50667 75.1128 4.15333 74.8061 3.9C74.4994 3.63333 74.1061 3.5 73.6261 3.5C73.2128 3.5 72.8794 3.61333 72.6261 3.84C72.3728 4.05333 72.2461 4.36667 72.2461 4.78C72.2461 5.23333 72.4594 5.58667 72.8861 5.84C73.3128 6.09333 73.9794 6.36667 74.8861 6.66C75.7928 6.96667 76.5261 7.26 77.0861 7.54C77.6594 7.82 78.1528 8.22667 78.5661 8.76C78.9794 9.29333 79.1861 9.98 79.1861 10.82C79.1861 11.62 78.9794 12.3467 78.5661 13C78.1661 13.6533 77.5794 14.1733 76.8061 14.56C76.0328 14.9467 75.1194 15.14 74.0661 15.14ZM88.0908 3.72C89.3974 3.72 90.4374 4.14667 91.2108 5C91.9974 5.84 92.3908 7 92.3908 8.48V15H88.9908V8.94C88.9908 8.19333 88.7974 7.61333 88.4108 7.2C88.0241 6.78667 87.5041 6.58 86.8508 6.58C86.1974 6.58 85.6774 6.78667 85.2908 7.2C84.9041 7.61333 84.7108 8.19333 84.7108 8.94V15H81.2908V3.84H84.7108V5.32C85.0574 4.82667 85.5241 4.44 86.1108 4.16C86.6974 3.86667 87.3574 3.72 88.0908 3.72ZM94.0873 9.4C94.0873 8.25333 94.3007 7.24667 94.7273 6.38C95.1673 5.51333 95.7607 4.84667 96.5073 4.38C97.254 3.91333 98.0873 3.68 99.0073 3.68C99.794 3.68 100.481 3.84 101.067 4.16C101.667 4.48 102.127 4.9 102.447 5.42V3.84H105.867V15H102.447V13.42C102.114 13.94 101.647 14.36 101.047 14.68C100.461 15 99.774 15.16 98.9873 15.16C98.0807 15.16 97.254 14.9267 96.5073 14.46C95.7607 13.98 95.1673 13.3067 94.7273 12.44C94.3007 11.56 94.0873 10.5467 94.0873 9.4ZM102.447 9.42C102.447 8.56667 102.207 7.89333 101.727 7.4C101.261 6.90667 100.687 6.66 100.007 6.66C99.3273 6.66 98.7473 6.90667 98.2673 7.4C97.8007 7.88 97.5673 8.54667 97.5673 9.4C97.5673 10.2533 97.8007 10.9333 98.2673 11.44C98.7473 11.9333 99.3273 12.18 100.007 12.18C100.687 12.18 101.261 11.9333 101.727 11.44C102.207 10.9467 102.447 10.2733 102.447 9.42ZM111.762 5.42C112.095 4.9 112.555 4.48 113.142 4.16C113.728 3.84 114.415 3.68 115.202 3.68C116.122 3.68 116.955 3.91333 117.702 4.38C118.448 4.84667 119.035 5.51333 119.462 6.38C119.902 7.24667 120.122 8.25333 120.122 9.4C120.122 10.5467 119.902 11.56 119.462 12.44C119.035 13.3067 118.448 13.98 117.702 14.46C116.955 14.9267 116.122 15.16 115.202 15.16C114.428 15.16 113.742 15 113.142 14.68C112.555 14.36 112.095 13.9467 111.762 13.44V20.32H108.342V3.84H111.762V5.42ZM116.642 9.4C116.642 8.54667 116.402 7.88 115.922 7.4C115.455 6.90667 114.875 6.66 114.182 6.66C113.502 6.66 112.922 6.90667 112.442 7.4C111.975 7.89333 111.742 8.56667 111.742 9.42C111.742 10.2733 111.975 10.9467 112.442 11.44C112.922 11.9333 113.502 12.18 114.182 12.18C114.862 12.18 115.442 11.9333 115.922 11.44C116.402 10.9333 116.642 10.2533 116.642 9.4Z" fill="#A0D405"/>
</svg>