<svg width="441" height="832" viewBox="0 0 441 832" fill="none" xmlns="http://www.w3.org/2000/svg">
<g clip-path="url(#clip0_0_6)">
<rect width="441" height="832" fill="white"/>
<rect width="444" height="832" transform="matrix(1 0 0 -1 -3 832)" fill="#262626"/>
<g style="mix-blend-mode:overlay" opacity="0.04">
<path d="M-1292.49 89.7557C-1292.49 72.3671 -1288.48 56.7686 -1280.47 42.96C-1272.28 29.1514 -1261.29 18.4114 -1247.48 10.74C-1233.5 2.89806 -1218.24 -1.02289 -1201.71 -1.02289C-1182.78 -1.02289 -1165.99 3.66521 -1151.33 13.0414C-1136.5 22.2471 -1125.76 35.3738 -1119.11 52.4214H-1154.14C-1158.75 43.0452 -1165.14 36.0557 -1173.32 31.4528C-1181.51 26.85 -1190.97 24.5485 -1201.71 24.5485C-1213.47 24.5485 -1223.95 27.1909 -1233.16 32.4757C-1242.37 37.7605 -1249.61 45.3466 -1254.9 55.2343C-1260.01 65.1219 -1262.57 76.629 -1262.57 89.7557C-1262.57 102.882 -1260.01 114.39 -1254.9 124.277C-1249.61 134.165 -1242.37 141.836 -1233.16 147.291C-1223.95 152.576 -1213.47 155.219 -1201.71 155.219C-1190.97 155.219 -1181.51 152.917 -1173.32 148.314C-1165.14 143.711 -1158.75 136.722 -1154.14 127.346H-1119.11C-1125.76 144.393 -1136.5 157.52 -1151.33 166.726C-1165.99 175.931 -1182.78 180.534 -1201.71 180.534C-1218.41 180.534 -1233.67 176.699 -1247.48 169.027C-1261.29 161.185 -1272.28 150.36 -1280.47 136.551C-1288.48 122.743 -1292.49 107.144 -1292.49 89.7557ZM-1055.84 58.5586C-1051.58 51.3986 -1045.95 45.8581 -1038.96 41.9371C-1031.8 37.8457 -1023.36 35.8 -1013.64 35.8V65.9743H-1021.06C-1032.48 65.9743 -1041.18 68.8724 -1047.14 74.6686C-1052.94 80.4647 -1055.84 90.5228 -1055.84 104.843V179H-1084.99V38.1014H-1055.84V58.5586ZM-925.733 181.301C-939.03 181.301 -951.049 178.318 -961.789 172.351C-972.529 166.214 -980.967 157.69 -987.105 146.78C-993.242 135.699 -996.31 122.913 -996.31 108.423C-996.31 94.1028 -993.156 81.4024 -986.849 70.3214C-980.541 59.2405 -971.932 50.7166 -961.022 44.75C-950.111 38.7833 -937.922 35.8 -924.455 35.8C-910.987 35.8 -898.798 38.7833 -887.887 44.75C-876.977 50.7166 -868.368 59.2405 -862.06 70.3214C-855.753 81.4024 -852.599 94.1028 -852.599 108.423C-852.599 122.743 -855.838 135.443 -862.316 146.524C-868.794 157.605 -877.659 166.214 -888.91 172.351C-899.991 178.318 -912.265 181.301 -925.733 181.301ZM-925.733 155.986C-918.232 155.986 -911.243 154.196 -904.765 150.616C-898.116 147.036 -892.746 141.666 -888.655 134.506C-884.563 127.346 -882.517 118.651 -882.517 108.423C-882.517 98.1943 -884.478 89.5852 -888.399 82.5957C-892.32 75.4357 -897.519 70.0657 -903.997 66.4857C-910.475 62.9057 -917.465 61.1157 -924.966 61.1157C-932.467 61.1157 -939.456 62.9057 -945.935 66.4857C-952.242 70.0657 -957.271 75.4357 -961.022 82.5957C-964.772 89.5852 -966.647 98.1943 -966.647 108.423C-966.647 123.595 -962.812 135.358 -955.14 143.711C-947.298 151.894 -937.496 155.986 -925.733 155.986ZM-634.552 38.1014L-678.28 179H-708.965L-737.35 74.9243L-765.734 179H-796.42L-840.402 38.1014H-810.74L-781.332 151.383L-751.414 38.1014H-720.984L-692.344 150.871L-663.192 38.1014H-634.552ZM-622.484 107.911C-622.484 93.7619 -619.586 81.2319 -613.79 70.3214C-607.823 59.4109 -599.811 50.9724 -589.752 45.0057C-579.524 38.8686 -568.187 35.8 -555.742 35.8C-546.537 35.8 -537.501 37.8457 -528.637 41.9371C-519.601 45.8581 -512.441 51.1428 -507.157 57.7914V-10.2286H-477.75V179H-507.157V157.776C-511.93 164.595 -518.579 170.22 -527.102 174.653C-535.456 179.085 -545.088 181.301 -555.998 181.301C-568.272 181.301 -579.524 178.233 -589.752 172.096C-599.811 165.788 -607.823 157.094 -613.79 146.013C-619.586 134.761 -622.484 122.061 -622.484 107.911ZM-507.157 108.423C-507.157 98.7057 -509.202 90.2671 -513.294 83.1071C-517.215 75.9471 -522.414 70.4919 -528.892 66.7414C-535.371 62.9909 -542.36 61.1157 -549.861 61.1157C-557.362 61.1157 -564.351 62.9909 -570.83 66.7414C-577.308 70.3214 -582.592 75.6914 -586.684 82.8514C-590.605 89.8409 -592.565 98.1943 -592.565 107.911C-592.565 117.629 -590.605 126.152 -586.684 133.483C-582.592 140.813 -577.308 146.439 -570.83 150.36C-564.181 154.11 -557.191 155.986 -549.861 155.986C-542.36 155.986 -535.371 154.11 -528.892 150.36C-522.414 146.61 -517.215 141.154 -513.294 133.994C-509.202 126.664 -507.157 118.14 -507.157 108.423ZM-380.902 180.79C-392.835 180.79 -403.575 178.744 -413.122 174.653C-422.668 170.391 -430.169 164.424 -435.625 156.753C-441.08 149.081 -443.807 140.131 -443.807 129.903H-412.61C-411.928 137.574 -408.945 143.882 -403.66 148.826C-398.205 153.77 -390.619 156.241 -380.902 156.241C-370.844 156.241 -363.002 153.855 -357.376 149.081C-351.75 144.138 -348.937 137.83 -348.937 130.159C-348.937 124.192 -350.727 119.333 -354.307 115.583C-357.717 111.832 -362.064 108.934 -367.349 106.889C-372.463 104.843 -379.623 102.627 -388.829 100.24C-400.421 97.1714 -409.883 94.1028 -417.213 91.0343C-424.373 87.7952 -430.51 82.8514 -435.625 76.2028C-440.739 69.5543 -443.296 60.6895 -443.296 49.6085C-443.296 39.38 -440.739 30.43 -435.625 22.7586C-430.51 15.0871 -423.35 9.20569 -414.145 5.11427C-404.939 1.02283 -394.284 -1.02289 -382.18 -1.02289C-364.962 -1.02289 -350.898 3.32425 -339.987 12.0185C-328.907 20.5424 -322.769 32.3052 -321.576 47.3071H-353.796C-354.307 40.829 -357.376 35.2885 -363.002 30.6857C-368.627 26.0828 -376.043 23.7814 -385.249 23.7814C-393.602 23.7814 -400.421 25.9124 -405.706 30.1743C-410.991 34.4362 -413.633 40.5733 -413.633 48.5857C-413.633 54.0409 -412.014 58.5586 -408.775 62.1386C-405.365 65.5481 -401.103 68.2757 -395.989 70.3214C-390.875 72.3671 -383.885 74.5833 -375.02 76.97C-363.257 80.209 -353.711 83.4481 -346.38 86.6871C-338.879 89.9262 -332.572 94.9552 -327.457 101.774C-322.173 108.423 -319.53 117.373 -319.53 128.624C-319.53 137.66 -322.002 146.183 -326.946 154.196C-331.719 162.208 -338.794 168.686 -348.17 173.63C-357.376 178.403 -368.287 180.79 -380.902 180.79ZM-214.044 35.8C-202.963 35.8 -193.076 38.1014 -184.381 42.7043C-175.517 47.3071 -168.612 54.1262 -163.668 63.1614C-158.725 72.1967 -156.253 83.1071 -156.253 95.8928V179H-185.148V100.24C-185.148 87.6247 -188.302 77.9928 -194.61 71.3443C-200.918 64.5252 -209.527 61.1157 -220.437 61.1157C-231.348 61.1157 -240.042 64.5252 -246.52 71.3443C-252.828 77.9928 -255.981 87.6247 -255.981 100.24V179H-285.133V38.1014H-255.981V54.2114C-251.208 48.4152 -245.156 43.8976 -237.826 40.6586C-230.325 37.4195 -222.398 35.8 -214.044 35.8ZM-128.786 107.911C-128.786 93.7619 -125.887 81.2319 -120.091 70.3214C-114.125 59.4109 -106.112 50.9724 -96.0541 45.0057C-85.8255 38.8686 -74.5741 35.8 -62.2998 35.8C-51.2188 35.8 -41.5869 38.0162 -33.4041 42.4485C-25.0507 46.7105 -18.4022 52.0805 -13.4584 58.5586V38.1014H15.9488V179H-13.4584V158.031C-18.4022 164.68 -25.136 170.22 -33.6598 174.653C-42.1836 179.085 -51.9007 181.301 -62.8112 181.301C-74.915 181.301 -85.996 178.233 -96.0541 172.096C-106.112 165.788 -114.125 157.094 -120.091 146.013C-125.887 134.761 -128.786 122.061 -128.786 107.911ZM-13.4584 108.423C-13.4584 98.7057 -15.5041 90.2671 -19.5955 83.1071C-23.5165 75.9471 -28.716 70.4919 -35.1941 66.7414C-41.6722 62.9909 -48.6617 61.1157 -56.1627 61.1157C-63.6636 61.1157 -70.6531 62.9909 -77.1312 66.7414C-83.6093 70.3214 -88.8941 75.6914 -92.9855 82.8514C-96.9065 89.8409 -98.8669 98.1943 -98.8669 107.911C-98.8669 117.629 -96.9065 126.152 -92.9855 133.483C-88.8941 140.813 -83.6093 146.439 -77.1312 150.36C-70.4827 154.11 -63.4931 155.986 -56.1627 155.986C-48.6617 155.986 -41.6722 154.11 -35.1941 150.36C-28.716 146.61 -23.5165 141.154 -19.5955 133.994C-15.5041 126.664 -13.4584 118.14 -13.4584 108.423ZM83.3895 58.8143C88.3333 52.3362 95.0671 46.8809 103.591 42.4485C112.115 38.0162 121.747 35.8 132.487 35.8C144.761 35.8 155.927 38.8686 165.985 45.0057C176.214 50.9724 184.226 59.4109 190.022 70.3214C195.819 81.2319 198.717 93.7619 198.717 107.911C198.717 122.061 195.819 134.761 190.022 146.013C184.226 157.094 176.214 165.788 165.985 172.096C155.927 178.233 144.761 181.301 132.487 181.301C121.747 181.301 112.2 179.17 103.847 174.909C95.4933 170.476 88.6742 165.021 83.3895 158.543V245.997H54.238V38.1014H83.3895V58.8143ZM169.054 107.911C169.054 98.1943 167.008 89.8409 162.917 82.8514C158.996 75.6914 153.711 70.3214 147.062 66.7414C140.584 62.9909 133.595 61.1157 126.094 61.1157C118.763 61.1157 111.774 62.9909 105.125 66.7414C98.6471 70.4919 93.3623 75.9471 89.2709 83.1071C85.3499 90.2671 83.3895 98.7057 83.3895 108.423C83.3895 118.14 85.3499 126.664 89.2709 133.994C93.3623 141.154 98.6471 146.61 105.125 150.36C111.774 154.11 118.763 155.986 126.094 155.986C133.595 155.986 140.584 154.11 147.062 150.36C153.711 146.439 158.996 140.813 162.917 133.483C167.008 126.152 169.054 117.629 169.054 107.911Z" fill="white"/>
</g>
<g style="mix-blend-mode:overlay" opacity="0.04">
<path d="M208.401 89.7557C208.401 72.3671 212.407 56.7686 220.42 42.96C228.602 29.1514 239.598 18.4114 253.407 10.74C267.386 2.89806 282.643 -1.02289 299.18 -1.02289C318.102 -1.02289 334.894 3.66521 349.555 13.0414C364.387 22.2471 375.127 35.3738 381.775 52.4214H346.742C342.14 43.0452 335.747 36.0557 327.564 31.4528C319.381 26.85 309.92 24.5485 299.18 24.5485C287.417 24.5485 276.932 27.1909 267.727 32.4757C258.521 37.7605 251.276 45.3466 245.991 55.2343C240.877 65.1219 238.32 76.629 238.32 89.7557C238.32 102.882 240.877 114.39 245.991 124.277C251.276 134.165 258.521 141.836 267.727 147.291C276.932 152.576 287.417 155.219 299.18 155.219C309.92 155.219 319.381 152.917 327.564 148.314C335.747 143.711 342.14 136.722 346.742 127.346H381.775C375.127 144.393 364.387 157.52 349.555 166.726C334.894 175.931 318.102 180.534 299.18 180.534C282.473 180.534 267.215 176.699 253.407 169.027C239.598 161.185 228.602 150.36 220.42 136.551C212.407 122.743 208.401 107.144 208.401 89.7557ZM445.049 58.5586C449.311 51.3986 454.936 45.8581 461.926 41.9371C469.086 37.8457 477.524 35.8 487.241 35.8V65.9743H479.826C468.404 65.9743 459.71 68.8724 453.743 74.6686C447.947 80.4647 445.049 90.5228 445.049 104.843V179H415.897V38.1014H445.049V58.5586ZM575.153 181.301C561.856 181.301 549.838 178.318 539.098 172.351C528.358 166.214 519.919 157.69 513.782 146.78C507.645 135.699 504.576 122.913 504.576 108.423C504.576 94.1028 507.73 81.4024 514.038 70.3214C520.345 59.2405 528.954 50.7166 539.865 44.75C550.775 38.7833 562.964 35.8 576.432 35.8C589.899 35.8 602.089 38.7833 612.999 44.75C623.909 50.7166 632.519 59.2405 638.826 70.3214C645.134 81.4024 648.288 94.1028 648.288 108.423C648.288 122.743 645.049 135.443 638.57 146.524C632.092 157.605 623.228 166.214 611.976 172.351C600.895 178.318 588.621 181.301 575.153 181.301ZM575.153 155.986C582.654 155.986 589.644 154.196 596.122 150.616C602.77 147.036 608.14 141.666 612.232 134.506C616.323 127.346 618.369 118.651 618.369 108.423C618.369 98.1943 616.409 89.5852 612.488 82.5957C608.567 75.4357 603.367 70.0657 596.889 66.4857C590.411 62.9057 583.421 61.1157 575.92 61.1157C568.419 61.1157 561.43 62.9057 554.952 66.4857C548.644 70.0657 543.615 75.4357 539.865 82.5957C536.114 89.5852 534.239 98.1943 534.239 108.423C534.239 123.595 538.075 135.358 545.746 143.711C553.588 151.894 563.39 155.986 575.153 155.986ZM866.334 38.1014L822.607 179H791.921L763.537 74.9243L735.153 179H704.467L660.484 38.1014H690.147L719.554 151.383L749.473 38.1014H779.903L808.543 150.871L837.694 38.1014H866.334ZM878.402 107.911C878.402 93.7619 881.301 81.2319 887.097 70.3214C893.063 59.4109 901.076 50.9724 911.134 45.0057C921.362 38.8686 932.699 35.8 945.144 35.8C954.35 35.8 963.385 37.8457 972.25 41.9371C981.285 45.8581 988.445 51.1428 993.73 57.7914V-10.2286H1023.14V179H993.73V157.776C988.956 164.595 982.308 170.22 973.784 174.653C965.431 179.085 955.799 181.301 944.888 181.301C932.614 181.301 921.362 178.233 911.134 172.096C901.076 165.788 893.063 157.094 887.097 146.013C881.301 134.761 878.402 122.061 878.402 107.911ZM993.73 108.423C993.73 98.7057 991.684 90.2671 987.592 83.1071C983.672 75.9471 978.472 70.4919 971.994 66.7414C965.516 62.9909 958.526 61.1157 951.025 61.1157C943.524 61.1157 936.535 62.9909 930.057 66.7414C923.579 70.3214 918.294 75.6914 914.202 82.8514C910.282 89.8409 908.321 98.1943 908.321 107.911C908.321 117.629 910.282 126.152 914.202 133.483C918.294 140.813 923.579 146.439 930.057 150.36C936.705 154.11 943.695 155.986 951.025 155.986C958.526 155.986 965.516 154.11 971.994 150.36C978.472 146.61 983.672 141.154 987.592 133.994C991.684 126.664 993.73 118.14 993.73 108.423ZM1119.98 180.79C1108.05 180.79 1097.31 178.744 1087.76 174.653C1078.22 170.391 1070.72 164.424 1065.26 156.753C1059.81 149.081 1057.08 140.131 1057.08 129.903H1088.28C1088.96 137.574 1091.94 143.882 1097.23 148.826C1102.68 153.77 1110.27 156.241 1119.98 156.241C1130.04 156.241 1137.88 153.855 1143.51 149.081C1149.14 144.138 1151.95 137.83 1151.95 130.159C1151.95 124.192 1150.16 119.333 1146.58 115.583C1143.17 111.832 1138.82 108.934 1133.54 106.889C1128.42 104.843 1121.26 102.627 1112.06 100.24C1100.47 97.1714 1091 94.1028 1083.67 91.0343C1076.51 87.7952 1070.38 82.8514 1065.26 76.2028C1060.15 69.5543 1057.59 60.6895 1057.59 49.6085C1057.59 39.38 1060.15 30.43 1065.26 22.7586C1070.38 15.0871 1077.54 9.20569 1086.74 5.11427C1095.95 1.02283 1106.6 -1.02289 1118.71 -1.02289C1135.92 -1.02289 1149.99 3.32425 1160.9 12.0185C1171.98 20.5424 1178.12 32.3052 1179.31 47.3071H1147.09C1146.58 40.829 1143.51 35.2885 1137.88 30.6857C1132.26 26.0828 1124.84 23.7814 1115.64 23.7814C1107.28 23.7814 1100.47 25.9124 1095.18 30.1743C1089.9 34.4362 1087.25 40.5733 1087.25 48.5857C1087.25 54.0409 1088.87 58.5586 1092.11 62.1386C1095.52 65.5481 1099.78 68.2757 1104.9 70.3214C1110.01 72.3671 1117 74.5833 1125.87 76.97C1137.63 80.209 1147.18 83.4481 1154.51 86.6871C1162.01 89.9262 1168.31 94.9552 1173.43 101.774C1178.71 108.423 1181.36 117.373 1181.36 128.624C1181.36 137.66 1178.88 146.183 1173.94 154.196C1169.17 162.208 1162.09 168.686 1152.72 173.63C1143.51 178.403 1132.6 180.79 1119.98 180.79ZM1286.84 35.8C1297.92 35.8 1307.81 38.1014 1316.51 42.7043C1325.37 47.3071 1332.27 54.1262 1337.22 63.1614C1342.16 72.1967 1344.63 83.1071 1344.63 95.8928V179H1315.74V100.24C1315.74 87.6247 1312.58 77.9928 1306.28 71.3443C1299.97 64.5252 1291.36 61.1157 1280.45 61.1157C1269.54 61.1157 1260.84 64.5252 1254.37 71.3443C1248.06 77.9928 1244.91 87.6247 1244.91 100.24V179H1215.75V38.1014H1244.91V54.2114C1249.68 48.4152 1255.73 43.8976 1263.06 40.6586C1270.56 37.4195 1278.49 35.8 1286.84 35.8ZM1372.1 107.911C1372.1 93.7619 1375 81.2319 1380.8 70.3214C1386.76 59.4109 1394.77 50.9724 1404.83 45.0057C1415.06 38.8686 1426.31 35.8 1438.59 35.8C1449.67 35.8 1459.3 38.0162 1467.48 42.4485C1475.84 46.7105 1482.48 52.0805 1487.43 58.5586V38.1014H1516.84V179H1487.43V158.031C1482.48 164.68 1475.75 170.22 1467.23 174.653C1458.7 179.085 1448.99 181.301 1438.08 181.301C1425.97 181.301 1414.89 178.233 1404.83 172.096C1394.77 165.788 1386.76 157.094 1380.8 146.013C1375 134.761 1372.1 122.061 1372.1 107.911ZM1487.43 108.423C1487.43 98.7057 1485.38 90.2671 1481.29 83.1071C1477.37 75.9471 1472.17 70.4919 1465.69 66.7414C1459.21 62.9909 1452.22 61.1157 1444.72 61.1157C1437.22 61.1157 1430.23 62.9909 1423.76 66.7414C1417.28 70.3214 1411.99 75.6914 1407.9 82.8514C1403.98 89.8409 1402.02 98.1943 1402.02 107.911C1402.02 117.629 1403.98 126.152 1407.9 133.483C1411.99 140.813 1417.28 146.439 1423.76 150.36C1430.4 154.11 1437.39 155.986 1444.72 155.986C1452.22 155.986 1459.21 154.11 1465.69 150.36C1472.17 146.61 1477.37 141.154 1481.29 133.994C1485.38 126.664 1487.43 118.14 1487.43 108.423ZM1584.28 58.8143C1589.22 52.3362 1595.95 46.8809 1604.48 42.4485C1613 38.0162 1622.63 35.8 1633.37 35.8C1645.65 35.8 1656.81 38.8686 1666.87 45.0057C1677.1 50.9724 1685.11 59.4109 1690.91 70.3214C1696.7 81.2319 1699.6 93.7619 1699.6 107.911C1699.6 122.061 1696.7 134.761 1690.91 146.013C1685.11 157.094 1677.1 165.788 1666.87 172.096C1656.81 178.233 1645.65 181.301 1633.37 181.301C1622.63 181.301 1613.09 179.17 1604.73 174.909C1596.38 170.476 1589.56 165.021 1584.28 158.543V245.997H1555.12V38.1014H1584.28V58.8143ZM1669.94 107.911C1669.94 98.1943 1667.89 89.8409 1663.8 82.8514C1659.88 75.6914 1654.6 70.3214 1647.95 66.7414C1641.47 62.9909 1634.48 61.1157 1626.98 61.1157C1619.65 61.1157 1612.66 62.9909 1606.01 66.7414C1599.53 70.4919 1594.25 75.9471 1590.16 83.1071C1586.24 90.2671 1584.28 98.7057 1584.28 108.423C1584.28 118.14 1586.24 126.664 1590.16 133.994C1594.25 141.154 1599.53 146.61 1606.01 150.36C1612.66 154.11 1619.65 155.986 1626.98 155.986C1634.48 155.986 1641.47 154.11 1647.95 150.36C1654.6 146.439 1659.88 140.813 1663.8 133.483C1667.89 126.152 1669.94 117.629 1669.94 107.911Z" fill="white"/>
</g>
<g style="mix-blend-mode:overlay" opacity="0.04">
<path d="M-1074.49 270.756C-1074.49 253.367 -1070.48 237.769 -1062.47 223.96C-1054.28 210.151 -1043.29 199.411 -1029.48 191.74C-1015.5 183.898 -1000.24 179.977 -983.707 179.977C-964.784 179.977 -947.992 184.665 -933.331 194.041C-918.5 203.247 -907.76 216.374 -901.111 233.421H-936.144C-940.747 224.045 -947.14 217.056 -955.322 212.453C-963.505 207.85 -972.967 205.549 -983.707 205.549C-995.47 205.549 -1005.95 208.191 -1015.16 213.476C-1024.37 218.76 -1031.61 226.347 -1036.9 236.234C-1042.01 246.122 -1044.57 257.629 -1044.57 270.756C-1044.57 283.882 -1042.01 295.39 -1036.9 305.277C-1031.61 315.165 -1024.37 322.836 -1015.16 328.291C-1005.95 333.576 -995.47 336.219 -983.707 336.219C-972.967 336.219 -963.505 333.917 -955.322 329.314C-947.14 324.711 -940.747 317.722 -936.144 308.346H-901.111C-907.76 325.393 -918.5 338.52 -933.331 347.726C-947.992 356.931 -964.784 361.534 -983.707 361.534C-1000.41 361.534 -1015.67 357.699 -1029.48 350.027C-1043.29 342.185 -1054.28 331.36 -1062.47 317.551C-1070.48 303.743 -1074.49 288.144 -1074.49 270.756ZM-837.838 239.559C-833.576 232.399 -827.95 226.858 -820.961 222.937C-813.801 218.846 -805.362 216.8 -795.645 216.8V246.974H-803.061C-814.482 246.974 -823.177 249.872 -829.143 255.669C-834.94 261.465 -837.838 271.523 -837.838 285.843V360H-866.989V219.101H-837.838V239.559ZM-707.733 362.301C-721.03 362.301 -733.049 359.318 -743.789 353.351C-754.529 347.214 -762.967 338.69 -769.105 327.78C-775.242 316.699 -778.31 303.913 -778.31 289.423C-778.31 275.103 -775.156 262.402 -768.849 251.321C-762.541 240.24 -753.932 231.717 -743.022 225.75C-732.111 219.783 -719.922 216.8 -706.455 216.8C-692.987 216.8 -680.798 219.783 -669.887 225.75C-658.977 231.717 -650.368 240.24 -644.06 251.321C-637.753 262.402 -634.599 275.103 -634.599 289.423C-634.599 303.743 -637.838 316.443 -644.316 327.524C-650.794 338.605 -659.659 347.214 -670.91 353.351C-681.991 359.318 -694.265 362.301 -707.733 362.301ZM-707.733 336.986C-700.232 336.986 -693.243 335.196 -686.765 331.616C-680.116 328.036 -674.746 322.666 -670.655 315.506C-666.563 308.346 -664.517 299.651 -664.517 289.423C-664.517 279.194 -666.478 270.585 -670.399 263.596C-674.32 256.436 -679.519 251.066 -685.997 247.486C-692.475 243.906 -699.465 242.116 -706.966 242.116C-714.467 242.116 -721.456 243.906 -727.935 247.486C-734.242 251.066 -739.271 256.436 -743.022 263.596C-746.772 270.585 -748.647 279.194 -748.647 289.423C-748.647 304.595 -744.812 316.358 -737.14 324.711C-729.298 332.894 -719.496 336.986 -707.733 336.986ZM-416.552 219.101L-460.28 360H-490.965L-519.35 255.924L-547.734 360H-578.42L-622.402 219.101H-592.74L-563.332 332.383L-533.414 219.101H-502.984L-474.344 331.871L-445.192 219.101H-416.552ZM-404.484 288.911C-404.484 274.762 -401.586 262.232 -395.79 251.321C-389.823 240.411 -381.811 231.972 -371.752 226.006C-361.524 219.869 -350.187 216.8 -337.742 216.8C-328.537 216.8 -319.501 218.846 -310.637 222.937C-301.601 226.858 -294.441 232.143 -289.157 238.791V170.771H-259.75V360H-289.157V338.776C-293.93 345.595 -300.579 351.22 -309.102 355.653C-317.456 360.085 -327.088 362.301 -337.998 362.301C-350.272 362.301 -361.524 359.233 -371.752 353.096C-381.811 346.788 -389.823 338.094 -395.79 327.013C-401.586 315.761 -404.484 303.061 -404.484 288.911ZM-289.157 289.423C-289.157 279.706 -291.202 271.267 -295.294 264.107C-299.215 256.947 -304.414 251.492 -310.892 247.741C-317.371 243.991 -324.36 242.116 -331.861 242.116C-339.362 242.116 -346.351 243.991 -352.83 247.741C-359.308 251.321 -364.592 256.691 -368.684 263.851C-372.605 270.841 -374.565 279.194 -374.565 288.911C-374.565 298.629 -372.605 307.152 -368.684 314.483C-364.592 321.813 -359.308 327.439 -352.83 331.36C-346.181 335.11 -339.191 336.986 -331.861 336.986C-324.36 336.986 -317.371 335.11 -310.892 331.36C-304.414 327.61 -299.215 322.154 -295.294 314.994C-291.202 307.664 -289.157 299.14 -289.157 289.423ZM-162.902 361.79C-174.835 361.79 -185.575 359.744 -195.122 355.653C-204.668 351.391 -212.169 345.424 -217.625 337.753C-223.08 330.081 -225.807 321.131 -225.807 310.903H-194.61C-193.928 318.574 -190.945 324.882 -185.66 329.826C-180.205 334.77 -172.619 337.241 -162.902 337.241C-152.844 337.241 -145.002 334.855 -139.376 330.081C-133.75 325.138 -130.937 318.83 -130.937 311.159C-130.937 305.192 -132.727 300.333 -136.307 296.583C-139.717 292.832 -144.064 289.934 -149.349 287.889C-154.463 285.843 -161.623 283.627 -170.829 281.24C-182.421 278.171 -191.883 275.103 -199.213 272.034C-206.373 268.795 -212.51 263.851 -217.625 257.203C-222.739 250.554 -225.296 241.69 -225.296 230.609C-225.296 220.38 -222.739 211.43 -217.625 203.759C-212.51 196.087 -205.35 190.206 -196.145 186.114C-186.939 182.023 -176.284 179.977 -164.18 179.977C-146.962 179.977 -132.898 184.324 -121.987 193.019C-110.907 201.542 -104.769 213.305 -103.576 228.307H-135.796C-136.307 221.829 -139.376 216.289 -145.002 211.686C-150.627 207.083 -158.043 204.781 -167.249 204.781C-175.602 204.781 -182.421 206.912 -187.706 211.174C-192.991 215.436 -195.633 221.573 -195.633 229.586C-195.633 235.041 -194.014 239.559 -190.775 243.139C-187.365 246.548 -183.103 249.276 -177.989 251.321C-172.875 253.367 -165.885 255.583 -157.02 257.97C-145.257 261.209 -135.711 264.448 -128.38 267.687C-120.879 270.926 -114.572 275.955 -109.457 282.774C-104.173 289.423 -101.53 298.373 -101.53 309.624C-101.53 318.66 -104.002 327.183 -108.946 335.196C-113.719 343.208 -120.794 349.686 -130.17 354.63C-139.376 359.403 -150.287 361.79 -162.902 361.79ZM3.95581 216.8C15.0368 216.8 24.9244 219.101 33.6187 223.704C42.4834 228.307 49.3877 235.126 54.3315 244.161C59.2754 253.197 61.7473 264.107 61.7473 276.893V360H32.8515V281.24C32.8515 268.625 29.6977 258.993 23.3901 252.344C17.0825 245.525 8.47343 242.116 -2.43704 242.116C-13.3475 242.116 -22.0418 245.525 -28.5199 252.344C-34.8275 258.993 -37.9813 268.625 -37.9813 281.24V360H-67.1328V219.101H-37.9813V235.211C-33.208 229.415 -27.1561 224.898 -19.8256 221.659C-12.3247 218.42 -4.39752 216.8 3.95581 216.8ZM89.2145 288.911C89.2145 274.762 92.1126 262.232 97.9088 251.321C103.875 240.411 111.888 231.972 121.946 226.006C132.174 219.869 143.426 216.8 155.7 216.8C166.781 216.8 176.413 219.016 184.596 223.449C192.949 227.71 199.598 233.08 204.542 239.559V219.101H233.949V360H204.542V339.031C199.598 345.68 192.864 351.22 184.34 355.653C175.816 360.085 166.099 362.301 155.189 362.301C143.085 362.301 132.004 359.233 121.946 353.096C111.888 346.788 103.875 338.094 97.9088 327.013C92.1126 315.761 89.2145 303.061 89.2145 288.911ZM204.542 289.423C204.542 279.706 202.496 271.267 198.404 264.107C194.484 256.947 189.284 251.492 182.806 247.741C176.328 243.991 169.338 242.116 161.837 242.116C154.336 242.116 147.347 243.991 140.869 247.741C134.391 251.321 129.106 256.691 125.014 263.851C121.094 270.841 119.133 279.194 119.133 288.911C119.133 298.629 121.094 307.152 125.014 314.483C129.106 321.813 134.391 327.439 140.869 331.36C147.517 335.11 154.507 336.986 161.837 336.986C169.338 336.986 176.328 335.11 182.806 331.36C189.284 327.61 194.484 322.154 198.404 314.994C202.496 307.664 204.542 299.14 204.542 289.423ZM301.389 239.814C306.333 233.336 313.067 227.881 321.591 223.449C330.115 219.016 339.747 216.8 350.487 216.8C362.761 216.8 373.927 219.869 383.985 226.006C394.214 231.972 402.226 240.411 408.022 251.321C413.819 262.232 416.717 274.762 416.717 288.911C416.717 303.061 413.819 315.761 408.022 327.013C402.226 338.094 394.214 346.788 383.985 353.096C373.927 359.233 362.761 362.301 350.487 362.301C339.747 362.301 330.2 360.17 321.847 355.909C313.493 351.476 306.674 346.021 301.389 339.543V426.997H272.238V219.101H301.389V239.814ZM387.054 288.911C387.054 279.194 385.008 270.841 380.917 263.851C376.996 256.691 371.711 251.321 365.062 247.741C358.584 243.991 351.595 242.116 344.094 242.116C336.763 242.116 329.774 243.991 323.125 247.741C316.647 251.492 311.362 256.947 307.271 264.107C303.35 271.267 301.389 279.706 301.389 289.423C301.389 299.14 303.35 307.664 307.271 314.994C311.362 322.154 316.647 327.61 323.125 331.36C329.774 335.11 336.763 336.986 344.094 336.986C351.595 336.986 358.584 335.11 365.062 331.36C371.711 327.439 376.996 321.813 380.917 314.483C385.008 307.152 387.054 298.629 387.054 288.911Z" fill="white"/>
</g>
<g style="mix-blend-mode:overlay" opacity="0.04">
<path d="M426.401 270.756C426.401 253.367 430.407 237.769 438.42 223.96C446.602 210.151 457.598 199.411 471.407 191.74C485.386 183.898 500.643 179.977 517.18 179.977C536.102 179.977 552.894 184.665 567.555 194.041C582.387 203.247 593.127 216.374 599.775 233.421H564.742C560.14 224.045 553.747 217.056 545.564 212.453C537.381 207.85 527.92 205.549 517.18 205.549C505.417 205.549 494.932 208.191 485.727 213.476C476.521 218.76 469.276 226.347 463.991 236.234C458.877 246.122 456.32 257.629 456.32 270.756C456.32 283.882 458.877 295.39 463.991 305.277C469.276 315.165 476.521 322.836 485.727 328.291C494.932 333.576 505.417 336.219 517.18 336.219C527.92 336.219 537.381 333.917 545.564 329.314C553.747 324.711 560.14 317.722 564.742 308.346H599.775C593.127 325.393 582.387 338.52 567.555 347.726C552.894 356.931 536.102 361.534 517.18 361.534C500.473 361.534 485.215 357.699 471.407 350.027C457.598 342.185 446.602 331.36 438.42 317.551C430.407 303.743 426.401 288.144 426.401 270.756ZM663.049 239.559C667.311 232.399 672.936 226.858 679.926 222.937C687.086 218.846 695.524 216.8 705.241 216.8V246.974H697.826C686.404 246.974 677.71 249.872 671.743 255.669C665.947 261.465 663.049 271.523 663.049 285.843V360H633.897V219.101H663.049V239.559ZM793.153 362.301C779.856 362.301 767.838 359.318 757.098 353.351C746.358 347.214 737.919 338.69 731.782 327.78C725.645 316.699 722.576 303.913 722.576 289.423C722.576 275.103 725.73 262.402 732.038 251.321C738.345 240.24 746.954 231.717 757.865 225.75C768.775 219.783 780.964 216.8 794.432 216.8C807.899 216.8 820.089 219.783 830.999 225.75C841.909 231.717 850.519 240.24 856.826 251.321C863.134 262.402 866.288 275.103 866.288 289.423C866.288 303.743 863.049 316.443 856.57 327.524C850.092 338.605 841.228 347.214 829.976 353.351C818.895 359.318 806.621 362.301 793.153 362.301ZM793.153 336.986C800.654 336.986 807.644 335.196 814.122 331.616C820.77 328.036 826.14 322.666 830.232 315.506C834.323 308.346 836.369 299.651 836.369 289.423C836.369 279.194 834.409 270.585 830.488 263.596C826.567 256.436 821.367 251.066 814.889 247.486C808.411 243.906 801.421 242.116 793.92 242.116C786.419 242.116 779.43 243.906 772.952 247.486C766.644 251.066 761.615 256.436 757.865 263.596C754.114 270.585 752.239 279.194 752.239 289.423C752.239 304.595 756.075 316.358 763.746 324.711C771.588 332.894 781.39 336.986 793.153 336.986ZM1084.33 219.101L1040.61 360H1009.92L981.537 255.924L953.153 360H922.467L878.484 219.101H908.147L937.554 332.383L967.473 219.101H997.903L1026.54 331.871L1055.69 219.101H1084.33ZM1096.4 288.911C1096.4 274.762 1099.3 262.232 1105.1 251.321C1111.06 240.411 1119.08 231.972 1129.13 226.006C1139.36 219.869 1150.7 216.8 1163.14 216.8C1172.35 216.8 1181.38 218.846 1190.25 222.937C1199.28 226.858 1206.44 232.143 1211.73 238.791V170.771H1241.14V360H1211.73V338.776C1206.96 345.595 1200.31 351.22 1191.78 355.653C1183.43 360.085 1173.8 362.301 1162.89 362.301C1150.61 362.301 1139.36 359.233 1129.13 353.096C1119.08 346.788 1111.06 338.094 1105.1 327.013C1099.3 315.761 1096.4 303.061 1096.4 288.911ZM1211.73 289.423C1211.73 279.706 1209.68 271.267 1205.59 264.107C1201.67 256.947 1196.47 251.492 1189.99 247.741C1183.52 243.991 1176.53 242.116 1169.03 242.116C1161.52 242.116 1154.53 243.991 1148.06 247.741C1141.58 251.321 1136.29 256.691 1132.2 263.851C1128.28 270.841 1126.32 279.194 1126.32 288.911C1126.32 298.629 1128.28 307.152 1132.2 314.483C1136.29 321.813 1141.58 327.439 1148.06 331.36C1154.71 335.11 1161.69 336.986 1169.03 336.986C1176.53 336.986 1183.52 335.11 1189.99 331.36C1196.47 327.61 1201.67 322.154 1205.59 314.994C1209.68 307.664 1211.73 299.14 1211.73 289.423ZM1337.98 361.79C1326.05 361.79 1315.31 359.744 1305.76 355.653C1296.22 351.391 1288.72 345.424 1283.26 337.753C1277.81 330.081 1275.08 321.131 1275.08 310.903H1306.28C1306.96 318.574 1309.94 324.882 1315.23 329.826C1320.68 334.77 1328.27 337.241 1337.98 337.241C1348.04 337.241 1355.88 334.855 1361.51 330.081C1367.14 325.138 1369.95 318.83 1369.95 311.159C1369.95 305.192 1368.16 300.333 1364.58 296.583C1361.17 292.832 1356.82 289.934 1351.54 287.889C1346.42 285.843 1339.26 283.627 1330.06 281.24C1318.47 278.171 1309 275.103 1301.67 272.034C1294.51 268.795 1288.38 263.851 1283.26 257.203C1278.15 250.554 1275.59 241.69 1275.59 230.609C1275.59 220.38 1278.15 211.43 1283.26 203.759C1288.38 196.087 1295.54 190.206 1304.74 186.114C1313.95 182.023 1324.6 179.977 1336.71 179.977C1353.92 179.977 1367.99 184.324 1378.9 193.019C1389.98 201.542 1396.12 213.305 1397.31 228.307H1365.09C1364.58 221.829 1361.51 216.289 1355.88 211.686C1350.26 207.083 1342.84 204.781 1333.64 204.781C1325.28 204.781 1318.47 206.912 1313.18 211.174C1307.9 215.436 1305.25 221.573 1305.25 229.586C1305.25 235.041 1306.87 239.559 1310.11 243.139C1313.52 246.548 1317.78 249.276 1322.9 251.321C1328.01 253.367 1335 255.583 1343.87 257.97C1355.63 261.209 1365.18 264.448 1372.51 267.687C1380.01 270.926 1386.31 275.955 1391.43 282.774C1396.71 289.423 1399.36 298.373 1399.36 309.624C1399.36 318.66 1396.88 327.183 1391.94 335.196C1387.17 343.208 1380.09 349.686 1370.72 354.63C1361.51 359.403 1350.6 361.79 1337.98 361.79ZM1504.84 216.8C1515.92 216.8 1525.81 219.101 1534.51 223.704C1543.37 228.307 1550.27 235.126 1555.22 244.161C1560.16 253.197 1562.63 264.107 1562.63 276.893V360H1533.74V281.24C1533.74 268.625 1530.58 258.993 1524.28 252.344C1517.97 245.525 1509.36 242.116 1498.45 242.116C1487.54 242.116 1478.84 245.525 1472.37 252.344C1466.06 258.993 1462.91 268.625 1462.91 281.24V360H1433.75V219.101H1462.91V235.211C1467.68 229.415 1473.73 224.898 1481.06 221.659C1488.56 218.42 1496.49 216.8 1504.84 216.8ZM1590.1 288.911C1590.1 274.762 1593 262.232 1598.8 251.321C1604.76 240.411 1612.77 231.972 1622.83 226.006C1633.06 219.869 1644.31 216.8 1656.59 216.8C1667.67 216.8 1677.3 219.016 1685.48 223.449C1693.84 227.71 1700.48 233.08 1705.43 239.559V219.101H1734.84V360H1705.43V339.031C1700.48 345.68 1693.75 351.22 1685.23 355.653C1676.7 360.085 1666.99 362.301 1656.08 362.301C1643.97 362.301 1632.89 359.233 1622.83 353.096C1612.77 346.788 1604.76 338.094 1598.8 327.013C1593 315.761 1590.1 303.061 1590.1 288.911ZM1705.43 289.423C1705.43 279.706 1703.38 271.267 1699.29 264.107C1695.37 256.947 1690.17 251.492 1683.69 247.741C1677.21 243.991 1670.22 242.116 1662.72 242.116C1655.22 242.116 1648.23 243.991 1641.76 247.741C1635.28 251.321 1629.99 256.691 1625.9 263.851C1621.98 270.841 1620.02 279.194 1620.02 288.911C1620.02 298.629 1621.98 307.152 1625.9 314.483C1629.99 321.813 1635.28 327.439 1641.76 331.36C1648.4 335.11 1655.39 336.986 1662.72 336.986C1670.22 336.986 1677.21 335.11 1683.69 331.36C1690.17 327.61 1695.37 322.154 1699.29 314.994C1703.38 307.664 1705.43 299.14 1705.43 289.423ZM1802.28 239.814C1807.22 233.336 1813.95 227.881 1822.48 223.449C1831 219.016 1840.63 216.8 1851.37 216.8C1863.65 216.8 1874.81 219.869 1884.87 226.006C1895.1 231.972 1903.11 240.411 1908.91 251.321C1914.7 262.232 1917.6 274.762 1917.6 288.911C1917.6 303.061 1914.7 315.761 1908.91 327.013C1903.11 338.094 1895.1 346.788 1884.87 353.096C1874.81 359.233 1863.65 362.301 1851.37 362.301C1840.63 362.301 1831.09 360.17 1822.73 355.909C1814.38 351.476 1807.56 346.021 1802.28 339.543V426.997H1773.12V219.101H1802.28V239.814ZM1887.94 288.911C1887.94 279.194 1885.89 270.841 1881.8 263.851C1877.88 256.691 1872.6 251.321 1865.95 247.741C1859.47 243.991 1852.48 242.116 1844.98 242.116C1837.65 242.116 1830.66 243.991 1824.01 247.741C1817.53 251.492 1812.25 256.947 1808.16 264.107C1804.24 271.267 1802.28 279.706 1802.28 289.423C1802.28 299.14 1804.24 307.664 1808.16 314.994C1812.25 322.154 1817.53 327.61 1824.01 331.36C1830.66 335.11 1837.65 336.986 1844.98 336.986C1852.48 336.986 1859.47 335.11 1865.95 331.36C1872.6 327.439 1877.88 321.813 1881.8 314.483C1885.89 307.152 1887.94 298.629 1887.94 288.911Z" fill="white"/>
</g>
<g style="mix-blend-mode:overlay" opacity="0.04">
<path d="M-925.485 446.756C-925.485 429.367 -921.479 413.769 -913.467 399.96C-905.284 386.151 -894.288 375.411 -880.48 367.74C-866.501 359.898 -851.243 355.977 -834.707 355.977C-815.784 355.977 -798.992 360.665 -784.331 370.041C-769.5 379.247 -758.76 392.374 -752.111 409.421H-787.144C-791.747 400.045 -798.14 393.056 -806.322 388.453C-814.505 383.85 -823.967 381.549 -834.707 381.549C-846.47 381.549 -856.954 384.191 -866.16 389.476C-875.365 394.76 -882.611 402.347 -887.895 412.234C-893.01 422.122 -895.567 433.629 -895.567 446.756C-895.567 459.882 -893.01 471.39 -887.895 481.277C-882.611 491.165 -875.365 498.836 -866.16 504.291C-856.954 509.576 -846.47 512.219 -834.707 512.219C-823.967 512.219 -814.505 509.917 -806.322 505.314C-798.14 500.711 -791.747 493.722 -787.144 484.346H-752.111C-758.76 501.393 -769.5 514.52 -784.331 523.726C-798.992 532.931 -815.784 537.534 -834.707 537.534C-851.413 537.534 -866.671 533.699 -880.48 526.027C-894.288 518.185 -905.284 507.36 -913.467 493.551C-921.479 479.743 -925.485 464.144 -925.485 446.756ZM-688.838 415.559C-684.576 408.399 -678.95 402.858 -671.961 398.937C-664.801 394.846 -656.362 392.8 -646.645 392.8V422.974H-654.061C-665.482 422.974 -674.177 425.872 -680.143 431.669C-685.94 437.465 -688.838 447.523 -688.838 461.843V536H-717.989V395.101H-688.838V415.559ZM-558.733 538.301C-572.03 538.301 -584.049 535.318 -594.789 529.351C-605.529 523.214 -613.967 514.69 -620.105 503.78C-626.242 492.699 -629.31 479.913 -629.31 465.423C-629.31 451.103 -626.156 438.402 -619.849 427.321C-613.541 416.24 -604.932 407.717 -594.022 401.75C-583.111 395.783 -570.922 392.8 -557.455 392.8C-543.987 392.8 -531.798 395.783 -520.887 401.75C-509.977 407.717 -501.368 416.24 -495.06 427.321C-488.753 438.402 -485.599 451.103 -485.599 465.423C-485.599 479.743 -488.838 492.443 -495.316 503.524C-501.794 514.605 -510.659 523.214 -521.91 529.351C-532.991 535.318 -545.265 538.301 -558.733 538.301ZM-558.733 512.986C-551.232 512.986 -544.243 511.196 -537.765 507.616C-531.116 504.036 -525.746 498.666 -521.655 491.506C-517.563 484.346 -515.517 475.651 -515.517 465.423C-515.517 455.194 -517.478 446.585 -521.399 439.596C-525.32 432.436 -530.519 427.066 -536.997 423.486C-543.475 419.906 -550.465 418.116 -557.966 418.116C-565.467 418.116 -572.456 419.906 -578.935 423.486C-585.242 427.066 -590.271 432.436 -594.022 439.596C-597.772 446.585 -599.647 455.194 -599.647 465.423C-599.647 480.595 -595.812 492.358 -588.14 500.711C-580.298 508.894 -570.496 512.986 -558.733 512.986ZM-267.552 395.101L-311.28 536H-341.965L-370.35 431.924L-398.734 536H-429.42L-473.402 395.101H-443.74L-414.332 508.383L-384.414 395.101H-353.984L-325.344 507.871L-296.192 395.101H-267.552ZM-255.484 464.911C-255.484 450.762 -252.586 438.232 -246.79 427.321C-240.823 416.411 -232.811 407.972 -222.752 402.006C-212.524 395.869 -201.187 392.8 -188.742 392.8C-179.537 392.8 -170.501 394.846 -161.637 398.937C-152.601 402.858 -145.441 408.143 -140.157 414.791V346.771H-110.75V536H-140.157V514.776C-144.93 521.595 -151.579 527.22 -160.102 531.653C-168.456 536.085 -178.088 538.301 -188.998 538.301C-201.272 538.301 -212.524 535.233 -222.752 529.096C-232.811 522.788 -240.823 514.094 -246.79 503.013C-252.586 491.761 -255.484 479.061 -255.484 464.911ZM-140.157 465.423C-140.157 455.706 -142.202 447.267 -146.294 440.107C-150.215 432.947 -155.414 427.492 -161.892 423.741C-168.371 419.991 -175.36 418.116 -182.861 418.116C-190.362 418.116 -197.351 419.991 -203.83 423.741C-210.308 427.321 -215.592 432.691 -219.684 439.851C-223.605 446.841 -225.565 455.194 -225.565 464.911C-225.565 474.629 -223.605 483.152 -219.684 490.483C-215.592 497.813 -210.308 503.439 -203.83 507.36C-197.181 511.11 -190.191 512.986 -182.861 512.986C-175.36 512.986 -168.371 511.11 -161.892 507.36C-155.414 503.61 -150.215 498.154 -146.294 490.994C-142.202 483.664 -140.157 475.14 -140.157 465.423ZM-13.9018 537.79C-25.8351 537.79 -36.5751 535.744 -46.1218 531.653C-55.6684 527.391 -63.1694 521.424 -68.6246 513.753C-74.0799 506.081 -76.8075 497.131 -76.8075 486.903H-45.6103C-44.9284 494.574 -41.9451 500.882 -36.6603 505.826C-31.2051 510.77 -23.6189 513.241 -13.9018 513.241C-3.84367 513.241 3.99824 510.855 9.62396 506.081C15.2497 501.138 18.0625 494.83 18.0625 487.159C18.0625 481.192 16.2725 476.333 12.6925 472.583C9.283 468.832 4.93586 465.934 -0.348902 463.889C-5.46319 461.843 -12.6232 459.627 -21.8289 457.24C-33.4213 454.171 -42.8827 451.103 -50.2132 448.034C-57.3732 444.795 -63.5103 439.851 -68.6246 433.203C-73.7389 426.554 -76.2961 417.69 -76.2961 406.609C-76.2961 396.38 -73.7389 387.43 -68.6246 379.759C-63.5103 372.087 -56.3503 366.206 -47.1446 362.114C-37.9389 358.023 -27.2841 355.977 -15.1803 355.977C2.03776 355.977 16.102 360.324 27.0125 369.019C38.0935 377.542 44.2306 389.305 45.424 404.307H13.204C12.6925 397.829 9.62395 392.289 3.99824 387.686C-1.62747 383.083 -9.04319 380.781 -18.2489 380.781C-26.6022 380.781 -33.4213 382.912 -38.706 387.174C-43.9908 391.436 -46.6332 397.573 -46.6332 405.586C-46.6332 411.041 -45.0137 415.559 -41.7746 419.139C-38.3651 422.548 -34.1032 425.276 -28.9889 427.321C-23.8746 429.367 -16.8851 431.583 -8.02033 433.97C3.74253 437.209 13.2892 440.448 20.6197 443.687C28.1206 446.926 34.4282 451.955 39.5425 458.774C44.8273 465.423 47.4697 474.373 47.4697 485.624C47.4697 494.66 44.9978 503.183 40.054 511.196C35.2806 519.208 28.2059 525.686 18.8297 530.63C9.62396 535.403 -1.28652 537.79 -13.9018 537.79ZM152.956 392.8C164.037 392.8 173.924 395.101 182.619 399.704C191.483 404.307 198.388 411.126 203.332 420.161C208.275 429.197 210.747 440.107 210.747 452.893V536H181.852V457.24C181.852 444.625 178.698 434.993 172.39 428.344C166.082 421.525 157.473 418.116 146.563 418.116C135.652 418.116 126.958 421.525 120.48 428.344C114.172 434.993 111.019 444.625 111.019 457.24V536H81.8672V395.101H111.019V411.211C115.792 405.415 121.844 400.898 129.174 397.659C136.675 394.42 144.602 392.8 152.956 392.8ZM238.214 464.911C238.214 450.762 241.113 438.232 246.909 427.321C252.875 416.411 260.888 407.972 270.946 402.006C281.174 395.869 292.426 392.8 304.7 392.8C315.781 392.8 325.413 395.016 333.596 399.449C341.949 403.71 348.598 409.08 353.542 415.559V395.101H382.949V536H353.542V515.031C348.598 521.68 341.864 527.22 333.34 531.653C324.816 536.085 315.099 538.301 304.189 538.301C292.085 538.301 281.004 535.233 270.946 529.096C260.888 522.788 252.875 514.094 246.909 503.013C241.113 491.761 238.214 479.061 238.214 464.911ZM353.542 465.423C353.542 455.706 351.496 447.267 347.404 440.107C343.484 432.947 338.284 427.492 331.806 423.741C325.328 419.991 318.338 418.116 310.837 418.116C303.336 418.116 296.347 419.991 289.869 423.741C283.391 427.321 278.106 432.691 274.014 439.851C270.094 446.841 268.133 455.194 268.133 464.911C268.133 474.629 270.094 483.152 274.014 490.483C278.106 497.813 283.391 503.439 289.869 507.36C296.517 511.11 303.507 512.986 310.837 512.986C318.338 512.986 325.328 511.11 331.806 507.36C338.284 503.61 343.484 498.154 347.404 490.994C351.496 483.664 353.542 475.14 353.542 465.423ZM450.389 415.814C455.333 409.336 462.067 403.881 470.591 399.449C479.115 395.016 488.747 392.8 499.487 392.8C511.761 392.8 522.927 395.869 532.985 402.006C543.214 407.972 551.226 416.411 557.022 427.321C562.819 438.232 565.717 450.762 565.717 464.911C565.717 479.061 562.819 491.761 557.022 503.013C551.226 514.094 543.214 522.788 532.985 529.096C522.927 535.233 511.761 538.301 499.487 538.301C488.747 538.301 479.2 536.17 470.847 531.909C462.493 527.476 455.674 522.021 450.389 515.543V602.997H421.238V395.101H450.389V415.814ZM536.054 464.911C536.054 455.194 534.008 446.841 529.917 439.851C525.996 432.691 520.711 427.321 514.062 423.741C507.584 419.991 500.595 418.116 493.094 418.116C485.763 418.116 478.774 419.991 472.125 423.741C465.647 427.492 460.362 432.947 456.271 440.107C452.35 447.267 450.389 455.706 450.389 465.423C450.389 475.14 452.35 483.664 456.271 490.994C460.362 498.154 465.647 503.61 472.125 507.36C478.774 511.11 485.763 512.986 493.094 512.986C500.595 512.986 507.584 511.11 514.062 507.36C520.711 503.439 525.996 497.813 529.917 490.483C534.008 483.152 536.054 474.629 536.054 464.911Z" fill="white"/>
</g>
<g style="mix-blend-mode:overlay" opacity="0.04">
<path d="M-779.485 625.756C-779.485 608.367 -775.479 592.769 -767.467 578.96C-759.284 565.151 -748.288 554.411 -734.48 546.74C-720.501 538.898 -705.243 534.977 -688.707 534.977C-669.784 534.977 -652.992 539.665 -638.331 549.041C-623.5 558.247 -612.76 571.374 -606.111 588.421H-641.144C-645.747 579.045 -652.14 572.056 -660.322 567.453C-668.505 562.85 -677.967 560.549 -688.707 560.549C-700.47 560.549 -710.954 563.191 -720.16 568.476C-729.365 573.76 -736.611 581.347 -741.895 591.234C-747.01 601.122 -749.567 612.629 -749.567 625.756C-749.567 638.882 -747.01 650.39 -741.895 660.277C-736.611 670.165 -729.365 677.836 -720.16 683.291C-710.954 688.576 -700.47 691.219 -688.707 691.219C-677.967 691.219 -668.505 688.917 -660.322 684.314C-652.14 679.711 -645.747 672.722 -641.144 663.346H-606.111C-612.76 680.393 -623.5 693.52 -638.331 702.726C-652.992 711.931 -669.784 716.534 -688.707 716.534C-705.413 716.534 -720.671 712.699 -734.48 705.027C-748.288 697.185 -759.284 686.36 -767.467 672.551C-775.479 658.743 -779.485 643.144 -779.485 625.756ZM-542.838 594.559C-538.576 587.399 -532.95 581.858 -525.961 577.937C-518.801 573.846 -510.362 571.8 -500.645 571.8V601.974H-508.061C-519.482 601.974 -528.177 604.872 -534.143 610.669C-539.94 616.465 -542.838 626.523 -542.838 640.843V715H-571.989V574.101H-542.838V594.559ZM-412.733 717.301C-426.03 717.301 -438.049 714.318 -448.789 708.351C-459.529 702.214 -467.967 693.69 -474.105 682.78C-480.242 671.699 -483.31 658.913 -483.31 644.423C-483.31 630.103 -480.156 617.402 -473.849 606.321C-467.541 595.24 -458.932 586.717 -448.022 580.75C-437.111 574.783 -424.922 571.8 -411.455 571.8C-397.987 571.8 -385.798 574.783 -374.887 580.75C-363.977 586.717 -355.368 595.24 -349.06 606.321C-342.753 617.402 -339.599 630.103 -339.599 644.423C-339.599 658.743 -342.838 671.443 -349.316 682.524C-355.794 693.605 -364.659 702.214 -375.91 708.351C-386.991 714.318 -399.265 717.301 -412.733 717.301ZM-412.733 691.986C-405.232 691.986 -398.243 690.196 -391.765 686.616C-385.116 683.036 -379.746 677.666 -375.655 670.506C-371.563 663.346 -369.517 654.651 -369.517 644.423C-369.517 634.194 -371.478 625.585 -375.399 618.596C-379.32 611.436 -384.519 606.066 -390.997 602.486C-397.475 598.906 -404.465 597.116 -411.966 597.116C-419.467 597.116 -426.456 598.906 -432.935 602.486C-439.242 606.066 -444.271 611.436 -448.022 618.596C-451.772 625.585 -453.647 634.194 -453.647 644.423C-453.647 659.595 -449.812 671.358 -442.14 679.711C-434.298 687.894 -424.496 691.986 -412.733 691.986ZM-121.552 574.101L-165.28 715H-195.965L-224.35 610.924L-252.734 715H-283.42L-327.402 574.101H-297.74L-268.332 687.383L-238.414 574.101H-207.984L-179.344 686.871L-150.192 574.101H-121.552ZM-109.484 643.911C-109.484 629.762 -106.586 617.232 -100.79 606.321C-94.8229 595.411 -86.8105 586.972 -76.7524 581.006C-66.5239 574.869 -55.1872 571.8 -42.7424 571.8C-33.5367 571.8 -24.5015 573.846 -15.6367 577.937C-6.60149 581.858 0.558514 587.143 5.84328 593.791V525.771H35.2504V715H5.84328V693.776C1.06994 700.595 -5.57863 706.22 -14.1024 710.653C-22.4558 715.085 -32.0877 717.301 -42.9982 717.301C-55.2724 717.301 -66.5239 714.233 -76.7524 708.096C-86.8105 701.788 -94.8229 693.094 -100.79 682.013C-106.586 670.761 -109.484 658.061 -109.484 643.911ZM5.84328 644.423C5.84328 634.706 3.79756 626.267 -0.293869 619.107C-4.21482 611.947 -9.41435 606.492 -15.8924 602.741C-22.3705 598.991 -29.3601 597.116 -36.861 597.116C-44.362 597.116 -51.3515 598.991 -57.8296 602.741C-64.3077 606.321 -69.5924 611.691 -73.6839 618.851C-77.6048 625.841 -79.5653 634.194 -79.5653 643.911C-79.5653 653.629 -77.6048 662.152 -73.6839 669.483C-69.5924 676.813 -64.3077 682.439 -57.8296 686.36C-51.181 690.11 -44.1915 691.986 -36.861 691.986C-29.3601 691.986 -22.3705 690.11 -15.8924 686.36C-9.41435 682.61 -4.21482 677.154 -0.293869 669.994C3.79756 662.664 5.84328 654.14 5.84328 644.423ZM132.098 716.79C120.165 716.79 109.425 714.744 99.8782 710.653C90.3316 706.391 82.8306 700.424 77.3754 692.753C71.9201 685.081 69.1925 676.131 69.1925 665.903H100.39C101.072 673.574 104.055 679.882 109.34 684.826C114.795 689.77 122.381 692.241 132.098 692.241C142.156 692.241 149.998 689.855 155.624 685.081C161.25 680.138 164.063 673.83 164.063 666.159C164.063 660.192 162.273 655.333 158.693 651.583C155.283 647.832 150.936 644.934 145.651 642.889C140.537 640.843 133.377 638.627 124.171 636.24C112.579 633.171 103.117 630.103 95.7868 627.034C88.6268 623.795 82.4897 618.851 77.3754 612.203C72.2611 605.554 69.7039 596.69 69.7039 585.609C69.7039 575.38 72.2611 566.43 77.3754 558.759C82.4897 551.087 89.6497 545.206 98.8554 541.114C108.061 537.023 118.716 534.977 130.82 534.977C148.038 534.977 162.102 539.324 173.013 548.019C184.093 556.542 190.231 568.305 191.424 583.307H159.204C158.693 576.829 155.624 571.289 149.998 566.686C144.373 562.083 136.957 559.781 127.751 559.781C119.398 559.781 112.579 561.912 107.294 566.174C102.009 570.436 99.3668 576.573 99.3668 584.586C99.3668 590.041 100.986 594.559 104.225 598.139C107.635 601.548 111.897 604.276 117.011 606.321C122.125 608.367 129.115 610.583 137.98 612.97C149.743 616.209 159.289 619.448 166.62 622.687C174.121 625.926 180.428 630.955 185.543 637.774C190.827 644.423 193.47 653.373 193.47 664.624C193.47 673.66 190.998 682.183 186.054 690.196C181.281 698.208 174.206 704.686 164.83 709.63C155.624 714.403 144.713 716.79 132.098 716.79ZM298.956 571.8C310.037 571.8 319.924 574.101 328.619 578.704C337.483 583.307 344.388 590.126 349.332 599.161C354.275 608.197 356.747 619.107 356.747 631.893V715H327.852V636.24C327.852 623.625 324.698 613.993 318.39 607.344C312.082 600.525 303.473 597.116 292.563 597.116C281.652 597.116 272.958 600.525 266.48 607.344C260.172 613.993 257.019 623.625 257.019 636.24V715H227.867V574.101H257.019V590.211C261.792 584.415 267.844 579.898 275.174 576.659C282.675 573.42 290.602 571.8 298.956 571.8ZM384.214 643.911C384.214 629.762 387.113 617.232 392.909 606.321C398.875 595.411 406.888 586.972 416.946 581.006C427.174 574.869 438.426 571.8 450.7 571.8C461.781 571.8 471.413 574.016 479.596 578.449C487.949 582.71 494.598 588.08 499.542 594.559V574.101H528.949V715H499.542V694.031C494.598 700.68 487.864 706.22 479.34 710.653C470.816 715.085 461.099 717.301 450.189 717.301C438.085 717.301 427.004 714.233 416.946 708.096C406.888 701.788 398.875 693.094 392.909 682.013C387.113 670.761 384.214 658.061 384.214 643.911ZM499.542 644.423C499.542 634.706 497.496 626.267 493.404 619.107C489.484 611.947 484.284 606.492 477.806 602.741C471.328 598.991 464.338 597.116 456.837 597.116C449.336 597.116 442.347 598.991 435.869 602.741C429.391 606.321 424.106 611.691 420.014 618.851C416.094 625.841 414.133 634.194 414.133 643.911C414.133 653.629 416.094 662.152 420.014 669.483C424.106 676.813 429.391 682.439 435.869 686.36C442.517 690.11 449.507 691.986 456.837 691.986C464.338 691.986 471.328 690.11 477.806 686.36C484.284 682.61 489.484 677.154 493.404 669.994C497.496 662.664 499.542 654.14 499.542 644.423ZM596.389 594.814C601.333 588.336 608.067 582.881 616.591 578.449C625.115 574.016 634.747 571.8 645.487 571.8C657.761 571.8 668.927 574.869 678.985 581.006C689.214 586.972 697.226 595.411 703.022 606.321C708.819 617.232 711.717 629.762 711.717 643.911C711.717 658.061 708.819 670.761 703.022 682.013C697.226 693.094 689.214 701.788 678.985 708.096C668.927 714.233 657.761 717.301 645.487 717.301C634.747 717.301 625.2 715.17 616.847 710.909C608.493 706.476 601.674 701.021 596.389 694.543V781.997H567.238V574.101H596.389V594.814ZM682.054 643.911C682.054 634.194 680.008 625.841 675.917 618.851C671.996 611.691 666.711 606.321 660.062 602.741C653.584 598.991 646.595 597.116 639.094 597.116C631.763 597.116 624.774 598.991 618.125 602.741C611.647 606.492 606.362 611.947 602.271 619.107C598.35 626.267 596.389 634.706 596.389 644.423C596.389 654.14 598.35 662.664 602.271 669.994C606.362 677.154 611.647 682.61 618.125 686.36C624.774 690.11 631.763 691.986 639.094 691.986C646.595 691.986 653.584 690.11 660.062 686.36C666.711 682.439 671.996 676.813 675.917 669.483C680.008 662.152 682.054 653.629 682.054 643.911Z" fill="white"/>
</g>
<g style="mix-blend-mode:overlay" opacity="0.04">
<path d="M-1337.49 803.756C-1337.49 786.367 -1333.48 770.769 -1325.47 756.96C-1317.28 743.151 -1306.29 732.411 -1292.48 724.74C-1278.5 716.898 -1263.24 712.977 -1246.71 712.977C-1227.78 712.977 -1210.99 717.665 -1196.33 727.041C-1181.5 736.247 -1170.76 749.374 -1164.11 766.421H-1199.14C-1203.75 757.045 -1210.14 750.056 -1218.32 745.453C-1226.51 740.85 -1235.97 738.549 -1246.71 738.549C-1258.47 738.549 -1268.95 741.191 -1278.16 746.476C-1287.37 751.76 -1294.61 759.347 -1299.9 769.234C-1305.01 779.122 -1307.57 790.629 -1307.57 803.756C-1307.57 816.882 -1305.01 828.39 -1299.9 838.277C-1294.61 848.165 -1287.37 855.836 -1278.16 861.291C-1268.95 866.576 -1258.47 869.219 -1246.71 869.219C-1235.97 869.219 -1226.51 866.917 -1218.32 862.314C-1210.14 857.711 -1203.75 850.722 -1199.14 841.346H-1164.11C-1170.76 858.393 -1181.5 871.52 -1196.33 880.726C-1210.99 889.931 -1227.78 894.534 -1246.71 894.534C-1263.41 894.534 -1278.67 890.699 -1292.48 883.027C-1306.29 875.185 -1317.28 864.36 -1325.47 850.551C-1333.48 836.743 -1337.49 821.144 -1337.49 803.756ZM-1100.84 772.559C-1096.58 765.399 -1090.95 759.858 -1083.96 755.937C-1076.8 751.846 -1068.36 749.8 -1058.64 749.8V779.974H-1066.06C-1077.48 779.974 -1086.18 782.872 -1092.14 788.669C-1097.94 794.465 -1100.84 804.523 -1100.84 818.843V893H-1129.99V752.101H-1100.84V772.559ZM-970.733 895.301C-984.03 895.301 -996.049 892.318 -1006.79 886.351C-1017.53 880.214 -1025.97 871.69 -1032.1 860.78C-1038.24 849.699 -1041.31 836.913 -1041.31 822.423C-1041.31 808.103 -1038.16 795.402 -1031.85 784.321C-1025.54 773.24 -1016.93 764.717 -1006.02 758.75C-995.111 752.783 -982.922 749.8 -969.455 749.8C-955.987 749.8 -943.798 752.783 -932.887 758.75C-921.977 764.717 -913.368 773.24 -907.06 784.321C-900.753 795.402 -897.599 808.103 -897.599 822.423C-897.599 836.743 -900.838 849.443 -907.316 860.524C-913.794 871.605 -922.659 880.214 -933.91 886.351C-944.991 892.318 -957.265 895.301 -970.733 895.301ZM-970.733 869.986C-963.232 869.986 -956.243 868.196 -949.765 864.616C-943.116 861.036 -937.746 855.666 -933.655 848.506C-929.563 841.346 -927.517 832.651 -927.517 822.423C-927.517 812.194 -929.478 803.585 -933.399 796.596C-937.32 789.436 -942.519 784.066 -948.997 780.486C-955.475 776.906 -962.465 775.116 -969.966 775.116C-977.467 775.116 -984.456 776.906 -990.935 780.486C-997.242 784.066 -1002.27 789.436 -1006.02 796.596C-1009.77 803.585 -1011.65 812.194 -1011.65 822.423C-1011.65 837.595 -1007.81 849.358 -1000.14 857.711C-992.298 865.894 -982.496 869.986 -970.733 869.986ZM-679.552 752.101L-723.28 893H-753.965L-782.35 788.924L-810.734 893H-841.42L-885.402 752.101H-855.74L-826.332 865.383L-796.414 752.101H-765.984L-737.344 864.871L-708.192 752.101H-679.552ZM-667.484 821.911C-667.484 807.762 -664.586 795.232 -658.79 784.321C-652.823 773.411 -644.811 764.972 -634.752 759.006C-624.524 752.869 -613.187 749.8 -600.742 749.8C-591.537 749.8 -582.501 751.846 -573.637 755.937C-564.601 759.858 -557.441 765.143 -552.157 771.791V703.771H-522.75V893H-552.157V871.776C-556.93 878.595 -563.579 884.22 -572.102 888.653C-580.456 893.085 -590.088 895.301 -600.998 895.301C-613.272 895.301 -624.524 892.233 -634.752 886.096C-644.811 879.788 -652.823 871.094 -658.79 860.013C-664.586 848.761 -667.484 836.061 -667.484 821.911ZM-552.157 822.423C-552.157 812.706 -554.202 804.267 -558.294 797.107C-562.215 789.947 -567.414 784.492 -573.892 780.741C-580.371 776.991 -587.36 775.116 -594.861 775.116C-602.362 775.116 -609.351 776.991 -615.83 780.741C-622.308 784.321 -627.592 789.691 -631.684 796.851C-635.605 803.841 -637.565 812.194 -637.565 821.911C-637.565 831.629 -635.605 840.152 -631.684 847.483C-627.592 854.813 -622.308 860.439 -615.83 864.36C-609.181 868.11 -602.191 869.986 -594.861 869.986C-587.36 869.986 -580.371 868.11 -573.892 864.36C-567.414 860.61 -562.215 855.154 -558.294 847.994C-554.202 840.664 -552.157 832.14 -552.157 822.423ZM-425.902 894.79C-437.835 894.79 -448.575 892.744 -458.122 888.653C-467.668 884.391 -475.169 878.424 -480.625 870.753C-486.08 863.081 -488.807 854.131 -488.807 843.903H-457.61C-456.928 851.574 -453.945 857.882 -448.66 862.826C-443.205 867.77 -435.619 870.241 -425.902 870.241C-415.844 870.241 -408.002 867.855 -402.376 863.081C-396.75 858.138 -393.937 851.83 -393.937 844.159C-393.937 838.192 -395.727 833.333 -399.307 829.583C-402.717 825.832 -407.064 822.934 -412.349 820.889C-417.463 818.843 -424.623 816.627 -433.829 814.24C-445.421 811.171 -454.883 808.103 -462.213 805.034C-469.373 801.795 -475.51 796.851 -480.625 790.203C-485.739 783.554 -488.296 774.69 -488.296 763.609C-488.296 753.38 -485.739 744.43 -480.625 736.759C-475.51 729.087 -468.35 723.206 -459.145 719.114C-449.939 715.023 -439.284 712.977 -427.18 712.977C-409.962 712.977 -395.898 717.324 -384.987 726.019C-373.907 734.542 -367.769 746.305 -366.576 761.307H-398.796C-399.307 754.829 -402.376 749.289 -408.002 744.686C-413.627 740.083 -421.043 737.781 -430.249 737.781C-438.602 737.781 -445.421 739.912 -450.706 744.174C-455.991 748.436 -458.633 754.573 -458.633 762.586C-458.633 768.041 -457.014 772.559 -453.775 776.139C-450.365 779.548 -446.103 782.276 -440.989 784.321C-435.875 786.367 -428.885 788.583 -420.02 790.97C-408.257 794.209 -398.711 797.448 -391.38 800.687C-383.879 803.926 -377.572 808.955 -372.457 815.774C-367.173 822.423 -364.53 831.373 -364.53 842.624C-364.53 851.66 -367.002 860.183 -371.946 868.196C-376.719 876.208 -383.794 882.686 -393.17 887.63C-402.376 892.403 -413.287 894.79 -425.902 894.79ZM-259.044 749.8C-247.963 749.8 -238.076 752.101 -229.381 756.704C-220.517 761.307 -213.612 768.126 -208.668 777.161C-203.725 786.197 -201.253 797.107 -201.253 809.893V893H-230.148V814.24C-230.148 801.625 -233.302 791.993 -239.61 785.344C-245.918 778.525 -254.527 775.116 -265.437 775.116C-276.348 775.116 -285.042 778.525 -291.52 785.344C-297.828 791.993 -300.981 801.625 -300.981 814.24V893H-330.133V752.101H-300.981V768.211C-296.208 762.415 -290.156 757.898 -282.826 754.659C-275.325 751.42 -267.398 749.8 -259.044 749.8ZM-173.786 821.911C-173.786 807.762 -170.887 795.232 -165.091 784.321C-159.125 773.411 -151.112 764.972 -141.054 759.006C-130.826 752.869 -119.574 749.8 -107.3 749.8C-96.2188 749.8 -86.5869 752.016 -78.4041 756.449C-70.0507 760.71 -63.4022 766.08 -58.4584 772.559V752.101H-29.0512V893H-58.4584V872.031C-63.4022 878.68 -70.136 884.22 -78.6598 888.653C-87.1836 893.085 -96.9007 895.301 -107.811 895.301C-119.915 895.301 -130.996 892.233 -141.054 886.096C-151.112 879.788 -159.125 871.094 -165.091 860.013C-170.887 848.761 -173.786 836.061 -173.786 821.911ZM-58.4584 822.423C-58.4584 812.706 -60.5041 804.267 -64.5955 797.107C-68.5165 789.947 -73.716 784.492 -80.1941 780.741C-86.6722 776.991 -93.6617 775.116 -101.163 775.116C-108.664 775.116 -115.653 776.991 -122.131 780.741C-128.609 784.321 -133.894 789.691 -137.986 796.851C-141.906 803.841 -143.867 812.194 -143.867 821.911C-143.867 831.629 -141.906 840.152 -137.986 847.483C-133.894 854.813 -128.609 860.439 -122.131 864.36C-115.483 868.11 -108.493 869.986 -101.163 869.986C-93.6617 869.986 -86.6722 868.11 -80.1941 864.36C-73.716 860.61 -68.5165 855.154 -64.5955 847.994C-60.5041 840.664 -58.4584 832.14 -58.4584 822.423ZM38.3895 772.814C43.3333 766.336 50.0671 760.881 58.5909 756.449C67.1147 752.016 76.7466 749.8 87.4866 749.8C99.7609 749.8 110.927 752.869 120.985 759.006C131.214 764.972 139.226 773.411 145.022 784.321C150.819 795.232 153.717 807.762 153.717 821.911C153.717 836.061 150.819 848.761 145.022 860.013C139.226 871.094 131.214 879.788 120.985 886.096C110.927 892.233 99.7609 895.301 87.4866 895.301C76.7466 895.301 67.1999 893.17 58.8466 888.909C50.4933 884.476 43.6742 879.021 38.3895 872.543V959.997H9.23802V752.101H38.3895V772.814ZM124.054 821.911C124.054 812.194 122.008 803.841 117.917 796.851C113.996 789.691 108.711 784.321 102.062 780.741C95.5842 776.991 88.5947 775.116 81.0937 775.116C73.7633 775.116 66.7737 776.991 60.1252 780.741C53.6471 784.492 48.3623 789.947 44.2709 797.107C40.3499 804.267 38.3895 812.706 38.3895 822.423C38.3895 832.14 40.3499 840.664 44.2709 847.994C48.3623 855.154 53.6471 860.61 60.1252 864.36C66.7737 868.11 73.7633 869.986 81.0937 869.986C88.5947 869.986 95.5842 868.11 102.062 864.36C108.711 860.439 113.996 854.813 117.917 847.483C122.008 840.152 124.054 831.629 124.054 821.911Z" fill="white"/>
</g>
<g style="mix-blend-mode:overlay" opacity="0.04">
<path d="M163.401 803.756C163.401 786.367 167.407 770.769 175.42 756.96C183.602 743.151 194.598 732.411 208.407 724.74C222.386 716.898 237.643 712.977 254.18 712.977C273.102 712.977 289.894 717.665 304.555 727.041C319.387 736.247 330.127 749.374 336.775 766.421H301.742C297.14 757.045 290.747 750.056 282.564 745.453C274.381 740.85 264.92 738.549 254.18 738.549C242.417 738.549 231.932 741.191 222.727 746.476C213.521 751.76 206.276 759.347 200.991 769.234C195.877 779.122 193.32 790.629 193.32 803.756C193.32 816.882 195.877 828.39 200.991 838.277C206.276 848.165 213.521 855.836 222.727 861.291C231.932 866.576 242.417 869.219 254.18 869.219C264.92 869.219 274.381 866.917 282.564 862.314C290.747 857.711 297.14 850.722 301.742 841.346H336.775C330.127 858.393 319.387 871.52 304.555 880.726C289.894 889.931 273.102 894.534 254.18 894.534C237.473 894.534 222.215 890.699 208.407 883.027C194.598 875.185 183.602 864.36 175.42 850.551C167.407 836.743 163.401 821.144 163.401 803.756ZM400.049 772.559C404.311 765.399 409.936 759.858 416.926 755.937C424.086 751.846 432.524 749.8 442.241 749.8V779.974H434.826C423.404 779.974 414.71 782.872 408.743 788.669C402.947 794.465 400.049 804.523 400.049 818.843V893H370.897V752.101H400.049V772.559ZM530.153 895.301C516.856 895.301 504.838 892.318 494.098 886.351C483.358 880.214 474.919 871.69 468.782 860.78C462.645 849.699 459.576 836.913 459.576 822.423C459.576 808.103 462.73 795.402 469.038 784.321C475.345 773.24 483.954 764.717 494.865 758.75C505.775 752.783 517.964 749.8 531.432 749.8C544.899 749.8 557.089 752.783 567.999 758.75C578.909 764.717 587.519 773.24 593.826 784.321C600.134 795.402 603.288 808.103 603.288 822.423C603.288 836.743 600.049 849.443 593.57 860.524C587.092 871.605 578.228 880.214 566.976 886.351C555.895 892.318 543.621 895.301 530.153 895.301ZM530.153 869.986C537.654 869.986 544.644 868.196 551.122 864.616C557.77 861.036 563.14 855.666 567.232 848.506C571.323 841.346 573.369 832.651 573.369 822.423C573.369 812.194 571.409 803.585 567.488 796.596C563.567 789.436 558.367 784.066 551.889 780.486C545.411 776.906 538.421 775.116 530.92 775.116C523.419 775.116 516.43 776.906 509.952 780.486C503.644 784.066 498.615 789.436 494.865 796.596C491.114 803.585 489.239 812.194 489.239 822.423C489.239 837.595 493.075 849.358 500.746 857.711C508.588 865.894 518.39 869.986 530.153 869.986ZM821.334 752.101L777.607 893H746.921L718.537 788.924L690.153 893H659.467L615.484 752.101H645.147L674.554 865.383L704.473 752.101H734.903L763.543 864.871L792.694 752.101H821.334ZM833.402 821.911C833.402 807.762 836.301 795.232 842.097 784.321C848.063 773.411 856.076 764.972 866.134 759.006C876.362 752.869 887.699 749.8 900.144 749.8C909.35 749.8 918.385 751.846 927.25 755.937C936.285 759.858 943.445 765.143 948.73 771.791V703.771H978.137V893H948.73V871.776C943.956 878.595 937.308 884.22 928.784 888.653C920.431 893.085 910.799 895.301 899.888 895.301C887.614 895.301 876.362 892.233 866.134 886.096C856.076 879.788 848.063 871.094 842.097 860.013C836.301 848.761 833.402 836.061 833.402 821.911ZM948.73 822.423C948.73 812.706 946.684 804.267 942.592 797.107C938.672 789.947 933.472 784.492 926.994 780.741C920.516 776.991 913.526 775.116 906.025 775.116C898.524 775.116 891.535 776.991 885.057 780.741C878.579 784.321 873.294 789.691 869.202 796.851C865.282 803.841 863.321 812.194 863.321 821.911C863.321 831.629 865.282 840.152 869.202 847.483C873.294 854.813 878.579 860.439 885.057 864.36C891.705 868.11 898.695 869.986 906.025 869.986C913.526 869.986 920.516 868.11 926.994 864.36C933.472 860.61 938.672 855.154 942.592 847.994C946.684 840.664 948.73 832.14 948.73 822.423ZM1074.98 894.79C1063.05 894.79 1052.31 892.744 1042.76 888.653C1033.22 884.391 1025.72 878.424 1020.26 870.753C1014.81 863.081 1012.08 854.131 1012.08 843.903H1043.28C1043.96 851.574 1046.94 857.882 1052.23 862.826C1057.68 867.77 1065.27 870.241 1074.98 870.241C1085.04 870.241 1092.88 867.855 1098.51 863.081C1104.14 858.138 1106.95 851.83 1106.95 844.159C1106.95 838.192 1105.16 833.333 1101.58 829.583C1098.17 825.832 1093.82 822.934 1088.54 820.889C1083.42 818.843 1076.26 816.627 1067.06 814.24C1055.47 811.171 1046 808.103 1038.67 805.034C1031.51 801.795 1025.38 796.851 1020.26 790.203C1015.15 783.554 1012.59 774.69 1012.59 763.609C1012.59 753.38 1015.15 744.43 1020.26 736.759C1025.38 729.087 1032.54 723.206 1041.74 719.114C1050.95 715.023 1061.6 712.977 1073.71 712.977C1090.92 712.977 1104.99 717.324 1115.9 726.019C1126.98 734.542 1133.12 746.305 1134.31 761.307H1102.09C1101.58 754.829 1098.51 749.289 1092.88 744.686C1087.26 740.083 1079.84 737.781 1070.64 737.781C1062.28 737.781 1055.47 739.912 1050.18 744.174C1044.9 748.436 1042.25 754.573 1042.25 762.586C1042.25 768.041 1043.87 772.559 1047.11 776.139C1050.52 779.548 1054.78 782.276 1059.9 784.321C1065.01 786.367 1072 788.583 1080.87 790.97C1092.63 794.209 1102.18 797.448 1109.51 800.687C1117.01 803.926 1123.31 808.955 1128.43 815.774C1133.71 822.423 1136.36 831.373 1136.36 842.624C1136.36 851.66 1133.88 860.183 1128.94 868.196C1124.17 876.208 1117.09 882.686 1107.72 887.63C1098.51 892.403 1087.6 894.79 1074.98 894.79ZM1241.84 749.8C1252.92 749.8 1262.81 752.101 1271.51 756.704C1280.37 761.307 1287.27 768.126 1292.22 777.161C1297.16 786.197 1299.63 797.107 1299.63 809.893V893H1270.74V814.24C1270.74 801.625 1267.58 791.993 1261.28 785.344C1254.97 778.525 1246.36 775.116 1235.45 775.116C1224.54 775.116 1215.84 778.525 1209.37 785.344C1203.06 791.993 1199.91 801.625 1199.91 814.24V893H1170.75V752.101H1199.91V768.211C1204.68 762.415 1210.73 757.898 1218.06 754.659C1225.56 751.42 1233.49 749.8 1241.84 749.8ZM1327.1 821.911C1327.1 807.762 1330 795.232 1335.8 784.321C1341.76 773.411 1349.77 764.972 1359.83 759.006C1370.06 752.869 1381.31 749.8 1393.59 749.8C1404.67 749.8 1414.3 752.016 1422.48 756.449C1430.84 760.71 1437.48 766.08 1442.43 772.559V752.101H1471.84V893H1442.43V872.031C1437.48 878.68 1430.75 884.22 1422.23 888.653C1413.7 893.085 1403.99 895.301 1393.08 895.301C1380.97 895.301 1369.89 892.233 1359.83 886.096C1349.77 879.788 1341.76 871.094 1335.8 860.013C1330 848.761 1327.1 836.061 1327.1 821.911ZM1442.43 822.423C1442.43 812.706 1440.38 804.267 1436.29 797.107C1432.37 789.947 1427.17 784.492 1420.69 780.741C1414.21 776.991 1407.22 775.116 1399.72 775.116C1392.22 775.116 1385.23 776.991 1378.76 780.741C1372.28 784.321 1366.99 789.691 1362.9 796.851C1358.98 803.841 1357.02 812.194 1357.02 821.911C1357.02 831.629 1358.98 840.152 1362.9 847.483C1366.99 854.813 1372.28 860.439 1378.76 864.36C1385.4 868.11 1392.39 869.986 1399.72 869.986C1407.22 869.986 1414.21 868.11 1420.69 864.36C1427.17 860.61 1432.37 855.154 1436.29 847.994C1440.38 840.664 1442.43 832.14 1442.43 822.423ZM1539.28 772.814C1544.22 766.336 1550.95 760.881 1559.48 756.449C1568 752.016 1577.63 749.8 1588.37 749.8C1600.65 749.8 1611.81 752.869 1621.87 759.006C1632.1 764.972 1640.11 773.411 1645.91 784.321C1651.7 795.232 1654.6 807.762 1654.6 821.911C1654.6 836.061 1651.7 848.761 1645.91 860.013C1640.11 871.094 1632.1 879.788 1621.87 886.096C1611.81 892.233 1600.65 895.301 1588.37 895.301C1577.63 895.301 1568.09 893.17 1559.73 888.909C1551.38 884.476 1544.56 879.021 1539.28 872.543V959.997H1510.12V752.101H1539.28V772.814ZM1624.94 821.911C1624.94 812.194 1622.89 803.841 1618.8 796.851C1614.88 789.691 1609.6 784.321 1602.95 780.741C1596.47 776.991 1589.48 775.116 1581.98 775.116C1574.65 775.116 1567.66 776.991 1561.01 780.741C1554.53 784.492 1549.25 789.947 1545.16 797.107C1541.24 804.267 1539.28 812.706 1539.28 822.423C1539.28 832.14 1541.24 840.664 1545.16 847.994C1549.25 855.154 1554.53 860.61 1561.01 864.36C1567.66 868.11 1574.65 869.986 1581.98 869.986C1589.48 869.986 1596.47 868.11 1602.95 864.36C1609.6 860.439 1614.88 854.813 1618.8 847.483C1622.89 840.152 1624.94 831.629 1624.94 821.911Z" fill="white"/>
</g>
</g>
<defs>
<clipPath id="clip0_0_6">
<rect width="441" height="832" fill="white"/>
</clipPath>
</defs>
</svg>
